<svg id="Layer_1" data-name="Layer 1" xmlns="http://www.w3.org/2000/svg" viewBox="0 0 988.46 190.02"><defs><style>.cls-1{fill:#111;}.cls-2{fill:none;stroke:#111;stroke-miterlimit:10;}.cls-3{fill:#00e356;}</style></defs><path class="cls-1" d="M631.04,106.5683h-4.9821l-2.1253-5.546H614.22l-2.1254,5.546h-4.8793L617.5,80.9038h3.3252Zm-15.4605-9.54h7.05l-3.5309-9.6428Z"/><path class="cls-1" d="M691.7535,83.3863a11.8872,11.8872,0,1,1-12.2,11.9522,12.0252,12.0252,0,0,1,12.2-11.9522m0,17.5237a5.6429,5.6429,0,1,0-5.4768-5.6177,5.5026,5.5026,0,0,0,5.4768,5.6177m44.2977-10.6016c0,9.5988-6.9034,16.1984-16.8387,16.1984H706.7992a1.0075,1.0075,0,0,1-1.0164-1.0616V75.2181a.9956.9956,0,0,1,1.0164-1.0156h12.4133c9.9353,0,16.8387,6.461,16.8387,16.1059m-7.2556,0c0-5.63-3.7889-9.7374-9.288-9.7374h-6.7932v19.567h6.7932c5.4991,0,9.288-4.2917,9.288-9.83m19.8625-6.922c3.0041,0,5.4067,1.292,6.4694,3.0456V85.0477a1.051,1.051,0,0,1,.9709-1.0156h4.6672a.9862.9862,0,0,1,.97,1.0156v20.49a.9469.9469,0,0,1-.97.9691h-4.6672a.9757.9757,0,0,1-.9709-.9691v-1.4308c-1.0627,1.7538-3.5118,3.0456-6.5155,3.0456-5.8223,0-11.2293-4.6609-11.2293-11.9062,0-7.2915,5.4531-11.86,11.2754-11.86m1.249,17.5694a5.669,5.669,0,1,0-5.4125-5.6632,5.3793,5.3793,0,0,0,5.4125,5.6632M774.72,83.3863c3.05,0,5.4986,1.2923,6.5616,2.9536V75.1717a.986.986,0,0,1,1.0163-.969h4.6678a.9467.9467,0,0,1,.97.969v30.3662a.9466.9466,0,0,1-.97.9688h-4.6678a.9751.9751,0,0,1-.97-.9688v-1.4308a7.78,7.78,0,0,1-6.5158,3.0456c-5.8228,0-11.2293-4.6609-11.2293-11.9062,0-7.2918,5.36-11.86,11.1372-11.86m1.3877,17.6286a5.7327,5.7327,0,1,0-5.3893-5.7224,5.3994,5.3994,0,0,0,5.3893,5.7224m24.8131-17.6286c3.05,0,5.4989,1.2923,6.5619,2.9536V75.1717a.9861.9861,0,0,1,1.0164-.969h4.6677a.9468.9468,0,0,1,.97.969v30.3662a.9468.9468,0,0,1-.97.9688H808.5a.9752.9752,0,0,1-.97-.9688v-1.4308a7.7792,7.7792,0,0,1-6.5157,3.0456c-5.8229,0-11.2293-4.6609-11.2293-11.9062,0-7.2918,5.36-11.86,11.1371-11.86m1.3878,17.6286a5.7328,5.7328,0,1,0-5.3891-5.7224,5.3993,5.3993,0,0,0,5.3891,5.7224m35.5274-16.9826H833.18a1.2525,1.2525,0,0,0-1.2472,1.0615l-4.2987,16.052-4.6031-16.052c-.2651-.8553-.6837-1.0615-1.2842-1.0615h-4.9088c-1.1551,0-1.3678.7848-1.1367,1.5693l6.229,19.9363a1.25,1.25,0,0,0,1.2477.9688h2.82l-.5988,1.9791a2.9044,2.9044,0,0,1-3.1242,2.17,5.0064,5.0064,0,0,1-2.9071-1.0467,1.6,1.6,0,0,0-.9194-.3181c-.4184,0-.7074.188-1.0978.7637l-1.3825,2.0687a1.8594,1.8594,0,0,0-.4157,1.1221c0,.7344.7344,1.1942,1.615,1.6968a11.2791,11.2791,0,0,0,5.5693,1.2967c4.6673,0,7.6712-2.5378,9.0113-6.7827l6.9662-23.8548C839.0378,84.6786,838.7609,84.0323,837.8364,84.0323ZM671.8332,102.0975a14.6,14.6,0,0,1-11.5089,5.0269c-9.0328,0-16.094-6.785-16.094-16.4467,0-10.0413,7.6214-16.9622,17.25-16.9622,7.1071,0,12.7912,3.0527,15.3127,9.1917a1.3927,1.3927,0,0,1,.1168.512c0,.292-.1915.5112-.8046.7244l-4.5,1.7307a1.1665,1.1665,0,0,1-.8517.0125,1.2988,1.2988,0,0,1-.5375-.6152,9.4118,9.4118,0,0,0-8.9085-5.1487c-5.7375,0-9.8445,4.4756-9.8445,10.2754,0,5.6221,3.5018,10.245,10.0072,10.245a9.26,9.26,0,0,0,7.4288-3.3818h-4.0629a1.0368,1.0368,0,0,1-1.0546-1.0532v-3.462a1.0368,1.0368,0,0,1,1.0546-1.0532h11.9035A1,1,0,0,1,677.794,92.7v12.7429a1.0369,1.0369,0,0,1-1.0547,1.0532h-3.8515a1.0368,1.0368,0,0,1-1.0546-1.0532Z"/><path class="cls-1" d="M861.6315,80.4228c5.0687,0,8.2894,2.6892,8.2894,6.7492a6.0144,6.0144,0,0,1-2.6927,5.3782,6.697,6.697,0,0,1,4.0127,6.2746c0,4.5346-3.3264,7.6983-8.87,7.6983H852.55v-26.1Zm3.96,7.3292c0-1.7927-1.4256-3.1637-4.0127-3.1637h-4.3823v6.3274h4.7519C864.2714,90.9684,865.5914,89.9138,865.5914,87.752Zm1.0032,10.8619c0-2.2146-1.584-3.6382-4.1183-3.6382h-5.2271v7.3291h5.491C865.169,102.3049,866.5946,101.0921,866.5946,98.6139Z"/><path class="cls-1" d="M879.7943,88.0684V91.39c1.0031-2.3728,2.7983-3.6909,4.9631-3.6909a6.0233,6.0233,0,0,1,2.0591.2636v4.4819a5.2832,5.2832,0,0,0-1.9535-.3164c-3.0624,0-5.1215,2.8473-5.1215,6.6437v7.8037h-4.3823V88.1211h4.4351Z"/><path class="cls-1" d="M896.1091,95.503h4.8047c0-2.531-1.4784-3.9019-3.6432-3.9019a4.8957,4.8957,0,0,0-4.3295,2.5837l-3.4319-2.4782a9.1259,9.1259,0,0,1,7.92-4.06c4.9631,0,7.8142,2.9527,7.8142,7.4873V106.47h-3.6959l-.3168-2.6364a7.02,7.02,0,0,1-6.019,3.0055c-4.0655,0-6.4415-2.1619-6.4415-5.6947S891.3572,95.503,896.1091,95.503Zm4.8047,3.2691h-4.488c-2.0591,0-3.0623.8963-3.0623,2.2145,0,1.2655.95,2.1091,2.7456,2.1091A4.6744,4.6744,0,0,0,900.9138,98.7721Z"/><path class="cls-1" d="M914.483,88.0684V90.23a7.1964,7.1964,0,0,1,5.4383-2.5309c4.0655,0,6.7582,2.7418,6.7582,7.7509v11.0729h-4.4879V95.9775c0-2.9-1.4784-4.3237-3.59-4.3237-2.5872,0-4.1183,1.4237-4.1183,4.5874v10.2819h-4.4879V88.0684Z"/><path class="cls-1" d="M948.1686,106.5231h-4.4879v-1.8455a6.65,6.65,0,0,1-5.2271,2.2145c-5.1215,0-8.0782-4.06-8.0782-9.5964,0-5.4837,2.9567-9.5964,8.0254-9.5964a6.6608,6.6608,0,0,1,5.28,2.2145v-9.491h4.4879ZM944.05,97.2957c0-3.1637-1.3727-5.6419-4.4879-5.6419s-4.4879,2.531-4.4879,5.6419c0,3.1637,1.4256,5.6419,4.4879,5.6419C942.6776,102.9376,944.05,100.5121,944.05,97.2957Z"/><line class="cls-2" x1="567.2421" y1="43.9773" x2="567.2421" y2="145.9773"/><path class="cls-1" d="M85.3025,91.6425A17.9652,17.9652,0,0,0,73.8447,79.6856a31.7389,31.7389,0,0,0-10.8355-1.63,55.3487,55.3487,0,0,0-9.8954.8482,50.17,50.17,0,0,0-7.0821,1.6864l-1.0732.38.1723,1.1171,1.5367,10.0537.2473,1.6473,1.5583-.57a32.7243,32.7243,0,0,1,5.5947-1.3733,46.2569,46.2569,0,0,1,7.6431-.5961,13.1925,13.1925,0,0,1,4.7424.7242,6.66,6.66,0,0,1,2.7155,1.9293A6.8913,6.8913,0,0,1,70.4756,99.03c-.04.5124-.088,1.016-.088,1.5367v.19c-.6714-.12-1.48-.2034-2.411-.3179l-.3843-.0445a31.71,31.71,0,0,0-3.9607-.2607,42.4334,42.4334,0,0,0-8.76.8965,22.74,22.74,0,0,0-7.5859,3.0689,16.22,16.22,0,0,0-5.3247,5.66A17.1,17.1,0,0,0,40,118.224a20.1393,20.1393,0,0,0,1.7265,8.7116,15.5966,15.5966,0,0,0,4.8615,5.8416,20.1271,20.1271,0,0,0,7.3606,3.2012,40.9429,40.9429,0,0,0,9.2062.9581,92.8314,92.8314,0,0,0,13.4406-.8786c2.1283-.3224,3.8062-.6231,5.3426-.8965,1.2455-.2162,2.4064-.42,3.6252-.6l1.1527-.1723V100.6768A34.0053,34.0053,0,0,0,85.3025,91.6425ZM58.0507,113.0753a11.5335,11.5335,0,0,1,3.3423-.9937,24.6678,24.6678,0,0,1,3.8325-.2956,22.9766,22.9766,0,0,1,3.846.2956c.2562.0356.8478.1284,1.3161.2206v11.79c-1.2233.1456-3.7665.2651-6.8532.2651A12.1173,12.1173,0,0,1,57,122.864c-.8786-.5341-1.8854-1.5806-1.8854-4.9408a5.1091,5.1091,0,0,1,.7684-2.9761A5.6316,5.6316,0,0,1,58.0507,113.0753Z"/><path class="cls-1" d="M129.6915,55.6654A45.5327,45.5327,0,0,0,124.6,54.2215a35.0525,35.0525,0,0,0-7.9127-.8036c-7.9169,0-14.12,2.19-17.9357,6.3362a24.8343,24.8343,0,0,0-6.314,17.2027V136.742h16.32V93.2234h19.0394V79.6283H108.7578V77.1555a19.2918,19.2918,0,0,1,.4015-4.4554,7.817,7.817,0,0,1,1.4045-3.2145,6.9109,6.9109,0,0,1,2.7593-2.0133,11.7338,11.7338,0,0,1,4.4995-.7638,22.1858,22.1858,0,0,1,4.6893.4812,18.7046,18.7046,0,0,1,3.7619,1.2408l1.5234.7108.3843-1.6381L130.539,57.246l.27-1.1654Z"/><path class="cls-1" d="M171.232,132.5254l-2.0447-9.8464-.331-1.5851-1.5014.6c-1.0509.4108-2.3842.8437-3.9781,1.2849a21.3172,21.3172,0,0,1-5.59.6625c-2.8083,0-4.6451-.7108-5.7666-2.2208-1.0554-1.43-1.5322-4.0271-1.5322-8.4293V93.2234h19.0393V79.6283H150.4881V62.9465l-1.559.2428-13.6,2.053-1.161.1812v47.67a44.36,44.36,0,0,0,1.2935,9.793,19.3356,19.3356,0,0,0,3.7753,7.6168,15.4074,15.4074,0,0,0,6.6851,4.9013,27.3041,27.3041,0,0,0,10.1026,1.634,32.3667,32.3667,0,0,0,8.5835-1.02,46.7742,46.7742,0,0,0,5.8287-1.9646l1.02-.4374Z"/><path class="cls-1" d="M216.5168,85.3861c-4.3933-4.8616-10.5529-7.33-18.3019-7.33A26.4892,26.4892,0,0,0,188.47,79.95a24.6834,24.6834,0,0,0-8.4734,5.6475,27.51,27.51,0,0,0-5.8944,9.3344,35.1336,35.1336,0,0,0-2.1948,12.9284,37.4445,37.4445,0,0,0,1.7045,11.5466,25.2718,25.2718,0,0,0,5.3207,9.3251,24.1751,24.1751,0,0,0,9.1268,6.2041,34.3456,34.3456,0,0,0,12.8181,2.2163,49.8524,49.8524,0,0,0,5.5987-.3312c1.81-.2117,3.5281-.4769,5.0912-.7859a41.076,41.076,0,0,0,4.2477-1.0688,21.4054,21.4054,0,0,0,3.0244-1.1653l.8964-.45-.1589-.9848L217.93,122.18l-.2781-1.7128-1.59.684a33.2693,33.2693,0,0,1-5.6693,1.634,37.1875,37.1875,0,0,1-7.97.7286c-4.6626,0-8.3187-1.1265-10.8618-3.3518-2.1681-1.8985-3.5016-3.81-3.974-7.8991h33.9285c1.3689,0,1.4172-1.0554,1.5056-3.144l.0089-.1894c.0353-.8876.0483-1.3867.0483-2.1019C223.0781,97.4184,220.8751,90.2076,216.5168,85.3861Zm-11.0959,9.02a13.0233,13.0233,0,0,1,2.49,6.981H187.7148a9.2141,9.2141,0,0,1,.6625-2.38l.2251-.6186a12.4877,12.4877,0,0,1,2.0752-3.8058,9.9261,9.9261,0,0,1,3.2146-2.4815,9.789,9.789,0,0,1,4.4241-.9318,9.52,9.52,0,0,1,4.1769.8657A8.7577,8.7577,0,0,1,205.4209,94.4066Z"/><path class="cls-1" d="M264.5178,80.1888c-.5961-.2032-1.3689-.41-2.5966-.7064-.98-.23-2.0972-.446-3.3334-.6358-1.0023-.15-2.1681-.3-3.4486-.4193-1.09-.1017-2.2386-.1634-3.1614-.1634a60.8642,60.8642,0,0,0-12.5664,1.2052c-4.0093.8831-7.206,1.7264-9.767,2.5613l-.9273.3045V136.742h16.3105V92.4242c.3624-.07.7951-.1369,1.1483-.199l1.02-.1808a24.66,24.66,0,0,1,4.1771-.3885,30.49,30.49,0,0,1,6.0362.5389,38.394,38.394,0,0,1,4.1107,1.042l1.4614.4768.3-1.5014,2.1372-10.4692.2384-1.1788Z"/><path class="cls-1" d="M390.0318,132.8879l-1.7484-10.2662-.2868-1.6689-1.5634.6358a28.2,28.2,0,0,1-5.0952,1.47,30.9451,30.9451,0,0,1-5.9917.583c-5.2192,0-8.9239-1.3955-11.03-4.1371C362.1174,116.6472,361,112.66,361,107.6572c0-5.1919,1.1661-9.2368,3.48-12.0184,2.2825-2.7422,5.5587-4.0757,10.04-4.0757a25.057,25.057,0,0,1,5.5066.5782,26.4032,26.4032,0,0,1,4.6361,1.4662l1.4573.6179.3967-1.5275,2.6716-10.1647.3046-1.152L388.39,80.93a39.0251,39.0251,0,0,0-14.8979-2.8744,28.8471,28.8471,0,0,0-11.6343,2.2654,25.8571,25.8571,0,0,0-8.8311,6.292,28.0673,28.0673,0,0,0-5.5594,9.4406,34.548,34.548,0,0,0-1.9207,11.6032,38.7025,38.7025,0,0,0,1.7045,11.6483,25.6554,25.6554,0,0,0,5.2631,9.4223,23.846,23.846,0,0,0,8.915,6.2,32.4585,32.4585,0,0,0,12.4736,2.2252,46.0034,46.0034,0,0,0,8.8445-.8519,26.8573,26.8573,0,0,0,6.5436-1.97l.9091-.45Z"/><polygon class="cls-1" points="327.333 79.628 325.968 79.628 325.968 80.988 325.968 135.378 325.968 136.742 327.333 136.742 338.217 136.742 339.568 136.742 339.568 135.378 339.568 80.988 339.568 79.628 338.217 79.628 327.333 79.628"/><path class="cls-1" d="M332.9665,73.9985a9.0379,9.0379,0,0,0,6.2478-2.4021,8.4874,8.4874,0,0,0,2.7072-6.5569,8.6176,8.6176,0,0,0-2.7027-6.65,9.47,9.47,0,0,0-12.6058,0,8.5639,8.5639,0,0,0-2.7161,6.65,8.46,8.46,0,0,0,2.7161,6.5569A9.1183,9.1183,0,0,0,332.9665,73.9985Z"/><path class="cls-1" d="M316.6826,93.9387a19.9952,19.9952,0,0,0-3.6869-8.35,18.2119,18.2119,0,0,0-7.5329-5.422,29.7662,29.7662,0,0,0-11.3877-1.903,75.8376,75.8376,0,0,0-20.651,2.64l-1.1038.2689-1.0245.2651V136.742h13.591V92.5042c7.7642-1.2693,19.0349-3.6876,19.0349,13.7224V136.742H317.53v-32.48A45.8645,45.8645,0,0,0,316.6826,93.9387Z"/><path class="cls-3" d="M504.0156,137.65a5.582,5.582,0,0,0,4.2656-1.3817,54.978,54.978,0,0,0,12.145-67.3189c-.0709-.13-.1416-.2609-.2135-.3906-.3031-.5522-.62-1.0959-.941-1.6364-.14-.2351-.2785-.4711-.4217-.7042a54.9806,54.9806,0,0,0-69.048-21.541c23.8078,2.86,44.955,19.9154,44.955,19.9154L504.91,56.34l-3.5558,44.0828L468.603,87.4437l11.5-9.91c-13.7449-18.1759-27.2476-24.9385-38.7685-26.3256a5.5949,5.5949,0,0,0-4.206,1.26,54.9761,54.9761,0,0,0-15.0439,65.58A61.245,61.245,0,0,0,428.8,128.98a54.9779,54.9779,0,0,0,67.26,15.4412c-25.0771-2.4371-47.6223-20.7075-47.6223-20.7075l-10.5365,8.4684,3.743-45.3182,33.6869,13.3718-11.8279,10.2C477.8949,129.493,492.0281,136.3722,504.0156,137.65Z"/><path class="cls-1" d="M392.9367,71.5733v-.7851a.2065.2065,0,0,1,.0546-.147.1859.1859,0,0,1,.1429-.0589h4.9968a.1869.1869,0,0,1,.1429.0589.2091.2091,0,0,1,.0546.147v.7851a.2013.2013,0,0,1-.0546.1446.19.19,0,0,1-.1429.0571h-1.8265V76.7a.208.208,0,0,1-.2058.2058h-.9406a.187.187,0,0,1-.1386-.0606.2027.2027,0,0,1-.0589-.1452V71.775h-1.8264a.1888.1888,0,0,1-.1429-.0571A.1988.1988,0,0,1,392.9367,71.5733Zm8.7337-.81,1.39,3.162,1.4027-3.162a.2758.2758,0,0,1,.1092-.1369.3429.3429,0,0,1,.1807-.0438h1.4987a.1939.1939,0,0,1,.1411.0565.1918.1918,0,0,1,.0564.141v5.929a.1984.1984,0,0,1-.0522.1428.1818.1818,0,0,1-.1369.0546h-.8943a.1927.1927,0,0,1-.1428-.0546.1951.1951,0,0,1-.0547-.1428V72.2323l-1.4651,3.2544a.3486.3486,0,0,1-.1092.1537.3311.3311,0,0,1-.1891.0438h-.7221a.3125.3125,0,0,1-.1806-.0438.344.344,0,0,1-.1093-.1537l-1.4615-3.2544v4.4765a.1908.1908,0,0,1-.0564.141.1862.1862,0,0,1-.1369.0564h-.9027a.18.18,0,0,1-.1362-.0546.1984.1984,0,0,1-.0529-.1428V70.78a.194.194,0,0,1,.1975-.1975h1.5372a.3455.3455,0,0,1,.1806.0438A.2792.2792,0,0,1,401.67,70.763Z"/></svg>
